<?xml version="1.0" standalone="no"?>
<!DOCTYPE svg PUBLIC "-//W3C//DTD SVG 20010904//EN"
 "http://www.w3.org/TR/2001/REC-SVG-20010904/DTD/svg10.dtd">
<svg version="1.0" xmlns="http://www.w3.org/2000/svg"
 width="512.000000pt" height="185.000000pt" viewBox="0 0 512.000000 185.000000"
 preserveAspectRatio="xMidYMid meet">
<metadata>
Created by potrace 1.16, written by Peter Selinger 2001-2019
</metadata>
<g transform="translate(0.000000,185.000000) scale(0.100000,-0.100000)"
fill="#000000" stroke="none">
<path d="M4155 1768 c-3 -7 -29 -169 -59 -360 l-53 -347 -48 -63 c-60 -80 -95
-152 -95 -201 0 -31 5 -40 33 -57 17 -11 35 -21 39 -22 4 -2 -4 -52 -18 -113
-42 -185 -41 -167 -8 -163 28 3 29 5 51 113 13 61 25 119 28 131 4 19 9 20 57
13 243 -35 728 46 728 120 0 25 -6 26 -56 5 -102 -43 -436 -81 -608 -70 -55 3
-101 8 -103 10 -2 2 6 55 17 117 l22 114 86 88 c146 149 375 334 622 502 167
114 200 142 200 171 0 13 -4 24 -9 24 -16 0 -240 -134 -329 -198 -137 -96
-344 -265 -448 -364 -52 -50 -94 -86 -94 -82 0 5 23 134 51 287 55 303 58 350
21 355 -12 2 -24 -3 -27 -10z"/>
<path d="M1123 1722 c-133 -71 -348 -309 -527 -585 -42 -64 -78 -117 -80 -117
-26 0 -115 -24 -133 -35 -37 -25 -31 -71 12 -96 19 -12 33 -24 31 -27 -185
-313 -385 -715 -372 -748 3 -8 14 -14 25 -14 15 0 39 40 114 192 92 190 267
510 291 536 11 11 31 5 114 -31 135 -59 186 -91 250 -151 80 -76 106 -126 107
-206 0 -36 -2 -90 -5 -120 -5 -54 -4 -55 22 -58 46 -5 60 30 52 134 -7 95 3
203 37 407 l22 127 58 0 c79 0 78 22 -3 51 -21 7 -38 19 -38 25 0 16 58 285
104 480 20 84 36 167 36 186 0 63 -52 85 -117 50z m32 -211 c-20 -79 -51 -215
-70 -304 -20 -89 -37 -171 -40 -182 -4 -19 -9 -20 -207 -13 -112 4 -211 9
-221 10 -47 7 305 441 488 602 98 87 100 84 50 -113z m-132 -571 c2 -3 -6 -66
-19 -140 -13 -74 -23 -153 -24 -174 l0 -39 -35 46 c-49 64 -138 125 -292 200
l-131 63 17 28 16 28 232 -4 c127 -1 233 -5 236 -8z"/>
<path d="M1365 1077 c-18 -15 -28 -36 -32 -64 -5 -35 -2 -45 19 -66 13 -13 30
-26 37 -28 9 -3 7 -18 -9 -59 -21 -54 -20 -97 3 -112 24 -16 117 -7 191 17 99
32 175 71 255 130 35 26 61 41 58 33 -3 -8 -8 -45 -12 -82 -7 -67 -8 -69 -54
-100 -119 -81 -266 -252 -327 -381 -83 -174 -58 -289 60 -287 56 0 112 30 163
85 72 79 121 201 169 427 13 63 26 125 29 137 4 15 33 35 107 72 93 45 189 83
196 77 1 -2 -3 -17 -9 -33 -6 -17 -9 -48 -7 -70 2 -30 7 -39 25 -41 27 -4 67
17 123 63 23 19 44 34 45 33 2 -2 -2 -27 -8 -55 -7 -35 -8 -62 -1 -80 8 -25
15 -28 59 -31 42 -2 64 4 140 41 50 24 152 86 229 136 76 51 140 90 142 88 2
-2 -1 -18 -6 -37 -19 -67 27 -78 128 -30 35 17 66 30 68 30 2 0 4 -16 4 -35 0
-39 28 -75 58 -75 44 0 177 43 301 97 133 58 166 82 145 103 -8 8 -61 -9 -186
-60 -96 -38 -192 -71 -214 -73 -39 -2 -39 -2 -39 34 0 75 -41 86 -135 39 -33
-16 -61 -30 -64 -30 -2 0 0 16 6 36 13 48 5 64 -32 64 -38 0 -41 -2 -217 -112
-137 -85 -294 -168 -319 -168 -6 0 -14 6 -17 14 -5 12 26 111 64 202 13 33 7
64 -12 64 -6 0 -52 -40 -102 -88 -89 -86 -137 -122 -137 -104 0 18 29 77 54
111 29 39 33 69 10 78 -17 6 -60 -30 -70 -59 -4 -13 -12 -16 -28 -12 -25 6
-141 -33 -230 -78 l-59 -30 7 24 c3 12 9 51 13 84 5 55 4 62 -13 68 -36 10
-71 -1 -120 -38 -106 -81 -357 -177 -386 -148 -6 6 0 29 16 60 32 64 32 77 1
98 l-25 16 20 25 c55 70 -8 138 -75 80z m485 -394 c0 -20 -43 -187 -67 -258
-48 -147 -92 -216 -172 -267 -106 -67 -140 -9 -82 138 40 102 112 205 212 307
79 79 109 101 109 80z"/>
</g>
</svg>
